HIERARCHY
ROOT pelvis
{
	OFFSET 0.000000 0.000000 0.000000
	CHANNELS 6 Xposition Yposition Zposition Zrotation Xrotation Yrotation
	JOINT lfemur
	{
		OFFSET 11.446000 0.000000 0.000000
		CHANNELS 3 Zrotation Xrotation Yrotation
		JOINT ltibia
		{
			OFFSET 0.000000 -42.030400 0.000000
			CHANNELS 3 Zrotation Xrotation Yrotation
			JOINT lfoot
			{
				OFFSET 0.000000 -39.930200 0.000000
				CHANNELS 3 Zrotation Xrotation Yrotation
				JOINT ltoes
				{
					OFFSET 0.000000 0.000000 11.775800
					CHANNELS 3 Zrotation Xrotation Yrotation
					End Site
					{
					    OFFSET 0.000000 0.000000 5.000000
					}
				}
			}
		}
	}
	JOINT rfemur
	{
		OFFSET -11.446000 0.000000 0.000000
		CHANNELS 3 Zrotation Xrotation Yrotation
		JOINT rtibia
		{
			OFFSET 0.000000 -42.030400 0.000000
			CHANNELS 3 Zrotation Xrotation Yrotation
			JOINT rfoot
			{
				OFFSET 0.000000 -39.930200 0.000000
				CHANNELS 3 Zrotation Xrotation Yrotation
				JOINT rtoes
				{
					OFFSET 0.000000 0.000000 11.775800
					CHANNELS 3 Zrotation Xrotation Yrotation
					End Site
					{
					    OFFSET 0.000000 0.000000 5.000000
					}
				}
			}
		}
	}
	JOINT thorax
	{
		OFFSET 0.000000 11.255600 -5.000000
		CHANNELS 3 Zrotation Xrotation Yrotation
		JOINT head
		{
			OFFSET 0.000000 43.799300 0.000000
			CHANNELS 3 Zrotation Xrotation Yrotation
			End Site
			{
			    OFFSET 0.000000 5.000000 0.000000
			}
		}
		JOINT lclavicle
		{
			OFFSET 0.000000 39.863000 0.000000
			CHANNELS 3 Zrotation Xrotation Yrotation
			JOINT lhumerus
			{
				OFFSET 17.380600 4.958300 0.000000
				CHANNELS 3 Zrotation Xrotation Yrotation
				JOINT lradius
				{
					OFFSET 0.000000 -27.561300 0.000000
					CHANNELS 3 Zrotation Xrotation Yrotation
					JOINT lhand
					{
						OFFSET 0.000000 -26.933000 0.000000
						CHANNELS 3 Zrotation Xrotation Yrotation
						End Site
						{
						    OFFSET 0.000000 -5.000000 0.000000
						}
					}
				}
			}
		}
		JOINT rclavicle
		{
			OFFSET 0.000000 39.863000 0.000000
			CHANNELS 3 Zrotation Xrotation Yrotation
			JOINT rhumerus
			{
				OFFSET -17.380600 4.958300 0.000000
				CHANNELS 3 Zrotation Xrotation Yrotation
				JOINT rradius
				{
					OFFSET 0.000000 -27.561300 0.000000
					CHANNELS 3 Zrotation Xrotation Yrotation
					JOINT rhand
					{
						OFFSET 0.000000 -26.933000 0.000000
						CHANNELS 3 Zrotation Xrotation Yrotation
						End Site
						{
						    OFFSET 0.000000 -5.000000 0.000000
						}
					}
				}
			}
		}
	}
}
MOTION
Frames:	14
Frame Time:	0.0333333
45.3915 87.7053 120.986 -0.0542678 -4.35483 -5.51408 1.54012 -0.379017 3.16072 1.55058 12.8825 14.0111 -0.351773 3.13848 0.000726025 -1.33184e-015 -5 -1.59635e-015 1.05529 -1.76174 -1.44476 -0.7511 16.0629 -9.34657 -2.69279 0.82561 -0.147554 -1.19271e-015 -5 -0 -4.47472 4.501 -0.796945 1.9607 24.415 -3.92412 -4.5969e-016 -1.98785e-016 -0 14.8327 -12.9488 61.3736 1.37064 -0.13005 -107.89 7.82104 -8.05113 -9.01413 -4.5969e-016 -1.98785e-016 -0 -11.7198 -7.62056 -34.0563 12.1565 -1.90182 63.4799 -0.468682 -1.81054 9.90453 
45.4826 87.7057 121.017 -0.0139226 -4.22963 -5.62266 1.38763 -0.378742 3.04675 1.59931 12.6878 14.3123 -0.386909 3.19693 0.000260503 3.97569e-016 -5 -0 0.945257 -1.92463 -1.49287 -0.747017 16.1412 -9.18564 -2.68176 0.777883 -0.147535 -6.75832e-016 -5 -3.1927e-015 -4.48946 4.39189 -0.814445 1.63722 24.5314 -3.8299 1.16786e-015 9.93923e-017 -1.59028e-015 14.8901 -12.9703 61.6434 1.66624 -0.00323336 -107.939 7.94721 -8.22651 -8.99412 1.16786e-015 9.93923e-017 -1.59028e-015 -11.8564 -7.73963 -33.9481 12.1093 -2.08958 63.0254 0.0838477 -1.76079 9.93966 
45.5725 87.703 121.024 0.0225838 -4.10126 -5.63312 1.29486 -0.516514 2.9815 1.59901 12.7057 14.3438 -0.278994 3.15069 -0.000223682 -3.97569e-016 -5 -0 0.820338 -2.0793 -1.56319 -0.697846 16.1906 -9.08765 -2.71333 0.725275 -0.147499 2.38614e-016 -5 -6.38541e-015 -4.37598 4.31896 -0.836585 1.27445 24.5737 -3.63071 -4.47266e-016 -9.93923e-017 -1.59028e-015 14.8 -12.9717 61.7641 1.8574 0.016535 -108.273 7.27496 -8.35337 -9.06613 -4.47266e-016 -9.93923e-017 -1.59028e-015 -12.1536 -7.91538 -34.0928 12.0116 -1.97699 63.6721 0.35286 -1.94059 9.95637 
45.6428 87.6992 121.017 0.0692652 -4.01202 -5.60809 1.21368 -0.63091 2.92788 1.57989 12.727 14.3817 -0.270609 3.15397 -0.000733038 5.36701e-016 -5 1.59635e-015 0.748958 -2.23071 -1.5766 -0.732407 16.2892 -9.07277 -2.60897 0.699824 -0.147441 6.75832e-016 -5 3.1927e-015 -4.20648 4.41578 -0.786912 1.03181 24.5086 -3.50437 8.82107e-016 -2.98177e-016 -7.95139e-016 14.7361 -13.2112 61.8394 1.95689 -0.107923 -108.392 7.59691 -8.20447 -9.03217 8.82107e-016 -2.98177e-016 -7.95139e-016 -12.6978 -8.34085 -33.9062 12.153 -1.37679 64.0743 -0.190374 -1.91602 9.92286 
45.6894 87.6968 121 0.101193 -3.96051 -5.46236 1.16959 -0.735074 2.86901 1.57921 12.7518 14.2672 -0.262446 3.17234 -0.00127414 -1.39131e-016 -5 -1.59635e-015 0.748551 -2.32017 -1.53159 -0.80916 16.3719 -9.24921 -2.55069 0.660873 -0.147356 3.97569e-016 -5 -0 -4.05228 4.53697 -0.730986 0.92412 24.5016 -3.4765 -7.70291e-016 0 -1.59028e-015 14.6469 -13.4173 61.7504 1.9989 -0.0899672 -108.342 7.64168 -8.26506 -9.02377 -7.70291e-016 0 -1.59028e-015 -12.8212 -8.43981 -33.5263 12.4293 -1.48811 63.2183 -0.486193 -1.59814 9.90453 
45.74 87.6959 120.979 0.149878 -3.90841 -5.40005 1.10773 -0.813337 2.83054 1.55696 12.7389 14.2687 -0.192586 3.19578 -0.00185356 3.97569e-016 -5 -0 0.67553 -2.42364 -1.56539 -0.820966 16.4372 -9.24767 -2.45907 0.655295 -0.147238 3.97569e-016 -5 -0 -3.92917 4.63501 -0.676586 0.621653 24.4874 -3.3171 -3.97569e-016 -1.98785e-016 -0 14.5708 -13.5078 61.9292 2.02682 -0.00323686 -108.401 7.40821 -8.31684 -9.05166 -3.97569e-016 -1.98785e-016 -0 -12.5936 -8.3953 -33.7188 12.2288 -1.71502 63.6167 -0.524319 -1.84329 9.90173 
45.7694 87.6952 120.932 0.191111 -3.81928 -5.34932 1.04789 -0.945625 2.77239 1.56484 12.7265 14.2749 -0.153785 3.241 -0.00247787 -2.58438e-016 -5 1.59635e-015 0.630234 -2.5595 -1.56971 -0.821532 16.4728 -9.27763 -2.4213 0.660345 -0.14707 5.56525e-016 -5 6.38541e-015 -3.81645 4.68302 -0.623435 0.494259 24.4518 -3.2975 -7.95139e-016 -1.98785e-016 -7.95139e-016 14.5935 -13.5423 61.829 1.86142 -0.0770499 -108.227 7.37556 -8.23653 -9.05757 -7.95139e-016 -1.98785e-016 -7.95139e-016 -12.5875 -8.47893 -33.6071 12.1576 -1.83786 63.5009 -0.319712 -1.75726 9.91486 
45.7709 87.6941 120.865 0.183595 -3.68441 -5.13607 1.08926 -1.19532 2.76383 1.56323 12.7942 14.1091 -0.203757 3.28742 -0.00315363 2.58438e-016 -5 -1.59635e-015 0.698948 -2.70751 -1.49043 -0.846554 16.4667 -9.57965 -2.39133 0.696341 -0.146821 3.97569e-016 -5 -0 -3.68317 4.70527 -0.630168 0.320998 24.5563 -3.28979 1.98785e-016 -3.97569e-016 2.38542e-015 14.535 -13.5858 62.0926 2.08276 -0.104337 -108.612 7.35035 -8.3679 -9.05127 1.98785e-016 -3.97569e-016 2.38542e-015 -12.588 -8.63731 -33.5598 12.1705 -1.78415 63.3159 -0.621454 -1.52478 9.89691 
45.7764 87.6932 120.784 0.226144 -3.60803 -4.87535 1.04601 -1.41609 2.66215 1.61261 12.8792 13.9302 -0.191404 3.35149 -0.00388745 -2.58438e-016 -5 1.59635e-015 0.652218 -2.83908 -1.53887 -0.778498 16.529 -9.83298 -2.45283 0.667412 -0.14646 1.19271e-015 -5 -0 -3.67865 4.82345 -0.663529 0.306361 24.6553 -3.46156 -1.2424e-016 -1.98785e-016 -7.95139e-016 14.6584 -13.654 61.9214 1.90932 0.0310084 -108.418 7.38074 -8.19839 -9.06398 -1.2424e-016 -1.98785e-016 -7.95139e-016 -12.7483 -8.95031 -33.8348 12.1001 -1.44078 63.466 -0.57192 -1.75015 9.89995 
45.778 87.6899 120.71 0.243584 -3.5875 -4.70767 1.05423 -1.54858 2.64745 1.59908 12.9395 13.7585 -0.130905 3.37986 -0.00502304 1.98785e-015 -5 -0 0.617398 -2.91686 -1.59223 -0.719287 16.5761 -9.96491 -2.50633 0.658229 -0.145962 5.56525e-016 -5 6.38541e-015 -3.56799 5.11225 -0.655488 -0.196115 24.6255 -3.24362 2.23633e-016 -3.97569e-016 -0 14.5501 -13.7426 61.981 1.88428 -0.142997 -108.426 7.32592 -8.25657 -9.05912 2.23633e-016 -3.97569e-016 -0 -12.9598 -9.30047 -33.9074 12.0966 -1.24098 63.5161 -0.444349 -1.95102 9.90711 
45.7515 87.6822 120.588 0.214372 -3.52457 -4.44067 1.13375 -1.87061 2.62662 1.63125 13.2155 13.5026 -0.108258 3.35577 -0.00668249 1.05358e-015 -5 -1.59635e-015 0.682232 -3.02867 -1.56254 -0.664862 16.58 -10.3078 -2.52661 0.704909 -0.145302 -1.03375e-015 -5 6.38541e-015 -3.48365 5.39783 -0.679445 -0.429188 24.4767 -3.27815 -4.22417e-016 0 -1.59028e-015 14.6155 -13.8833 62.1131 1.95628 -0.00314699 -108.324 7.93597 -8.27726 -8.99144 -4.22417e-016 0 -1.59028e-015 -12.8468 -9.52992 -33.8095 12.2009 -1.26341 63.6015 -0.574718 -1.5595 9.90034 
45.7441 87.6719 120.401 0.239293 -3.42107 -4.0675 1.17172 -2.32082 2.59781 1.60731 13.5251 13.1562 -0.0188553 3.38195 -0.00854064 3.97569e-016 -5 -0 0.646338 -3.26084 -1.63581 -0.535679 16.6684 -10.6585 -2.56701 0.727265 -0.14445 3.97569e-016 -5 -0 -3.40654 5.82018 -0.680999 -0.581702 24.2268 -3.37345 2.98177e-016 0 1.59028e-015 14.6815 -14.1722 62.0741 1.85068 -0.0344157 -108.214 7.73983 -8.11512 -9.0243 2.98177e-016 0 1.59028e-015 -12.6583 -9.90828 -34.2599 11.8952 -1.08616 64.2976 -0.677358 -1.6004 9.89356 
45.7644 87.6592 120.146 0.395153 -3.16943 -3.62689 1.01069 -2.88925 2.36704 1.64071 13.6289 12.9669 0.144902 3.56917 -0.0102732 2.12698e-015 -5 1.59635e-015 0.439906 -3.80419 -1.80734 -0.385053 16.9843 -10.9969 -2.56383 0.674247 -0.143378 -2.38614e-016 -5 6.38541e-015 -3.43984 6.17051 -0.579109 -0.729903 23.8746 -3.47201 -5.46658e-016 3.97569e-016 -0 14.6991 -14.4613 62.3557 1.91123 -0.0289273 -108.782 8.01568 -8.33783 -8.97678 -5.46658e-016 3.97569e-016 -0 -12.7531 -10.3555 -34.4591 11.6442 -0.887659 64.0838 -0.298161 -1.98842 9.91558 
45.7758 87.644 119.772 0.457472 -2.84608 -2.85533 1.02638 -3.75738 2.26959 1.61302 13.9247 12.3422 0.261093 3.79019 -0.0115535 3.97569e-016 -5 -0 0.402152 -4.32095 -1.83344 -0.253539 17.0441 -11.8053 -2.58778 0.754144 -0.137724 -1.58956e-016 -5 -6.38541e-015 -3.10473 6.74459 -0.587004 -1.42493 23.1797 -3.12327 -7.95139e-016 -1.59028e-015 7.95139e-016 14.2736 -14.9414 62.4343 1.99913 -0.0157877 -108.575 8.20725 -8.27745 -8.95883 -7.95139e-016 -1.59028e-015 7.95139e-016 -13.0268 -10.8234 -34.5075 11.6972 -0.999116 63.7754 -0.106611 -1.71145 9.92916 
